<svg xmlns="http://www.w3.org/2000/svg" width="1000" height="58" viewBox="0 0 1000 58" role="img" aria-label="Section divider">
  <title>Section divider</title>
  <defs>
    <linearGradient id="trace_wv" x1="0" y1="0" x2="1" y2="0">
      <stop offset="0" stop-color="#1a1b26" stop-opacity="0"/>
      <stop offset="0.2" stop-color="#dea584"/>
      <stop offset="0.5" stop-color="#bb9af7"/>
      <stop offset="0.8" stop-color="#7aa2f7"/>
      <stop offset="1" stop-color="#1a1b26" stop-opacity="0"/>
    </linearGradient>
    <filter id="dg_wv" x="-30%" y="-300%" width="160%" height="700%">
      <feGaussianBlur stdDeviation="1.5" result="b"/><feMerge><feMergeNode in="b"/><feMergeNode in="SourceGraphic"/></feMerge>
    </filter>
    
  </defs>
  
  <path d="M70.0,33.2 L78.0,29.9 L86.0,26.4 L94.0,23.3 L102.0,20.6 L110.0,18.8 L118.0,18.0 L126.0,18.3 L134.0,19.6 L142.0,21.9 L150.0,24.8 L158.0,28.1 L166.0,31.6 L174.0,34.7 L182.0,37.4 L190.0,39.2 L198.0,40.0 L206.0,39.7 L214.0,38.4 L222.0,36.1 L230.0,33.2 L238.0,29.9 L246.0,26.4 L254.0,23.3 L262.0,20.6 L270.0,18.8 L278.0,18.0 L286.0,18.3 L294.0,19.6 L302.0,21.9 L310.0,24.8 L318.0,28.1 L326.0,31.6 L334.0,34.7 L342.0,37.4 L350.0,39.2 L358.0,40.0 L366.0,39.7 L374.0,38.4 L382.0,36.1 L390.0,33.2 L398.0,29.9 L406.0,26.4 L414.0,23.3 L422.0,20.6 L430.0,18.8 L438.0,18.0 L446.0,18.3 L454.0,19.6 L462.0,21.9 L470.0,24.8 L478.0,28.1 L486.0,31.6 L494.0,34.7 L502.0,37.4 L510.0,39.2 L518.0,40.0 L526.0,39.7 L534.0,38.4 L542.0,36.1 L550.0,33.2 L558.0,29.9 L566.0,26.4 L574.0,23.3 L582.0,20.6 L590.0,18.8 L598.0,18.0 L606.0,18.3 L614.0,19.6 L622.0,21.9 L630.0,24.8 L638.0,28.1 L646.0,31.6 L654.0,34.7 L662.0,37.4 L670.0,39.2 L678.0,40.0 L686.0,39.7 L694.0,38.4 L702.0,36.1 L710.0,33.2 L718.0,29.9 L726.0,26.4 L734.0,23.3 L742.0,20.6 L750.0,18.8 L758.0,18.0 L766.0,18.3 L774.0,19.6 L782.0,21.9 L790.0,24.8 L798.0,28.1 L806.0,31.6 L814.0,34.7 L822.0,37.4 L830.0,39.2 L838.0,40.0 L846.0,39.7 L854.0,38.4 L862.0,36.1 L870.0,33.2 L878.0,29.9 L886.0,26.4 L894.0,23.3 L902.0,20.6 L910.0,18.8 L918.0,18.0 L926.0,18.3 L934.0,19.6" fill="none" stroke="url(#trace_wv)" stroke-width="1.6" filter="url(#dg_wv)"/>
  <path d="M70.0,30.2 L78.0,33.1 L86.0,34.8 L94.0,34.7 L102.0,32.9 L110.0,29.9 L118.0,26.6 L126.0,24.0 L134.0,23.0 L142.0,23.8 L150.0,26.2 L158.0,29.4 L166.0,32.5 L174.0,34.6 L182.0,34.9 L190.0,33.5 L198.0,30.7 L206.0,27.4 L214.0,24.6 L222.0,23.1 L230.0,23.4 L238.0,25.4 L246.0,28.5 L254.0,31.8 L262.0,34.2 L270.0,35.0 L278.0,34.0 L286.0,31.5 L294.0,28.2 L302.0,25.2 L310.0,23.3 L318.0,23.2 L326.0,24.8 L334.0,27.7 L342.0,31.0 L350.0,33.7 L358.0,35.0 L366.0,34.4 L374.0,32.2 L382.0,29.0 L390.0,25.8 L398.0,23.6 L406.0,23.0 L414.0,24.3 L422.0,26.9 L430.0,30.2 L438.0,33.1 L446.0,34.8 L454.0,34.7 L462.0,32.9 L470.0,29.9 L478.0,26.6 L486.0,24.0 L494.0,23.0 L502.0,23.8 L510.0,26.2 L518.0,29.4 L526.0,32.5 L534.0,34.6 L542.0,34.9 L550.0,33.5 L558.0,30.7 L566.0,27.4 L574.0,24.6 L582.0,23.1 L590.0,23.4 L598.0,25.4 L606.0,28.5 L614.0,31.8 L622.0,34.2 L630.0,35.0 L638.0,34.0 L646.0,31.5 L654.0,28.2 L662.0,25.2 L670.0,23.3 L678.0,23.2 L686.0,24.8 L694.0,27.7 L702.0,31.0 L710.0,33.7 L718.0,35.0 L726.0,34.4 L734.0,32.2 L742.0,29.0 L750.0,25.8 L758.0,23.6 L766.0,23.0 L774.0,24.3 L782.0,26.9 L790.0,30.2 L798.0,33.1 L806.0,34.8 L814.0,34.7 L822.0,32.9 L830.0,29.9 L838.0,26.6 L846.0,24.0 L854.0,23.0 L862.0,23.8 L870.0,26.2 L878.0,29.4 L886.0,32.5 L894.0,34.6 L902.0,34.9 L910.0,33.5 L918.0,30.7 L926.0,27.4 L934.0,24.6" fill="none" stroke="#7dcfff" stroke-width="1" opacity="0.45"/>
  <path d="M70.0,33.2 L78.0,29.9 L86.0,26.4 L94.0,23.3 L102.0,20.6 L110.0,18.8 L118.0,18.0 L126.0,18.3 L134.0,19.6 L142.0,21.9 L150.0,24.8 L158.0,28.1 L166.0,31.6 L174.0,34.7 L182.0,37.4 L190.0,39.2 L198.0,40.0 L206.0,39.7 L214.0,38.4 L222.0,36.1 L230.0,33.2 L238.0,29.9 L246.0,26.4 L254.0,23.3 L262.0,20.6 L270.0,18.8 L278.0,18.0 L286.0,18.3 L294.0,19.6 L302.0,21.9 L310.0,24.8 L318.0,28.1 L326.0,31.6 L334.0,34.7 L342.0,37.4 L350.0,39.2 L358.0,40.0 L366.0,39.7 L374.0,38.4 L382.0,36.1 L390.0,33.2 L398.0,29.9 L406.0,26.4 L414.0,23.3 L422.0,20.6 L430.0,18.8 L438.0,18.0 L446.0,18.3 L454.0,19.6 L462.0,21.9 L470.0,24.8 L478.0,28.1 L486.0,31.6 L494.0,34.7 L502.0,37.4 L510.0,39.2 L518.0,40.0 L526.0,39.7 L534.0,38.4 L542.0,36.1 L550.0,33.2 L558.0,29.9 L566.0,26.4 L574.0,23.3 L582.0,20.6 L590.0,18.8 L598.0,18.0 L606.0,18.3 L614.0,19.6 L622.0,21.9 L630.0,24.8 L638.0,28.1 L646.0,31.6 L654.0,34.7 L662.0,37.4 L670.0,39.2 L678.0,40.0 L686.0,39.7 L694.0,38.4 L702.0,36.1 L710.0,33.2 L718.0,29.9 L726.0,26.4 L734.0,23.3 L742.0,20.6 L750.0,18.8 L758.0,18.0 L766.0,18.3 L774.0,19.6 L782.0,21.9 L790.0,24.8 L798.0,28.1 L806.0,31.6 L814.0,34.7 L822.0,37.4 L830.0,39.2 L838.0,40.0 L846.0,39.7 L854.0,38.4 L862.0,36.1 L870.0,33.2 L878.0,29.9 L886.0,26.4 L894.0,23.3 L902.0,20.6 L910.0,18.8 L918.0,18.0 L926.0,18.3 L934.0,19.6" fill="none" stroke="#c0caf5" stroke-width="1.6" stroke-dasharray="12 130" opacity="0.65">
    <animate attributeName="stroke-dashoffset" values="0;-142" dur="4.5s" repeatCount="indefinite"/>
  </path>
  <circle cx="70" cy="29" r="2.6" fill="#dea584"/>
  <circle cx="930" cy="29" r="2.6" fill="#7aa2f7"/>
</svg>