<svg xmlns="http://www.w3.org/2000/svg" width="1000" height="64" viewBox="0 0 1000 64" role="img" aria-label="Section divider: circuit board">
  <title>Section divider: circuit board</title>
  <defs>
    <linearGradient id="panel_cc" x1="0" y1="0" x2="0" y2="1">
      <stop offset="0" stop-color="#1f2335"/>
      <stop offset="1" stop-color="#15161e"/>
    </linearGradient>
    <linearGradient id="trace_cc" x1="0" y1="0" x2="1" y2="0">
      <stop offset="0" stop-color="#dea584"/>
      <stop offset="0.5" stop-color="#bb9af7"/>
      <stop offset="1" stop-color="#7aa2f7"/>
    </linearGradient>
    <filter id="dg_cc" x="-30%" y="-300%" width="160%" height="700%">
      <feGaussianBlur stdDeviation="1.4" result="b"/><feMerge><feMergeNode in="b"/><feMergeNode in="SourceGraphic"/></feMerge>
    </filter>
    
  </defs>
  <rect x="8" y="4" width="984" height="56" rx="10" fill="url(#panel_cc)"/>
  <rect x="8.5" y="4.5" width="983" height="55" rx="9.5" fill="none" stroke="#292e42" stroke-width="1"/>
  <path d="M8 16 Q8 4 20 4" fill="none" stroke="#dea584" stroke-width="2" opacity="0.85"/>
  
  <text x="30" y="16" font-family="'JetBrains Mono','Cascadia Code','Fira Code','SFMono-Regular','Consolas','Liberation Mono',monospace" font-size="9.5" fill="#565f89" letter-spacing="2">VAI·PCB rev3 — 1.58-bit bus</text>
  <path d="M30,42 H240 V24 H420 V42 H588 V24 H780 V42 H970" fill="none" stroke="url(#trace_cc)" stroke-width="1.5" filter="url(#dg_cc)"/>
  <path d="M30,42 H240 V24 H420 V42 H588 V24 H780 V42 H970" fill="none" stroke="#292e42" stroke-width="0.6" opacity="0.8"/>
  <circle cx="240" cy="42" r="3" fill="#15161e" stroke="#dea584" stroke-width="1.2"/><circle cx="240" cy="24" r="3" fill="#15161e" stroke="#dea584" stroke-width="1.2"/><circle cx="420" cy="24" r="3" fill="#15161e" stroke="#bb9af7" stroke-width="1.2"/><circle cx="420" cy="42" r="3" fill="#15161e" stroke="#bb9af7" stroke-width="1.2"/><circle cx="588" cy="42" r="3" fill="#15161e" stroke="#7dcfff" stroke-width="1.2"/><circle cx="588" cy="24" r="3" fill="#15161e" stroke="#7dcfff" stroke-width="1.2"/><circle cx="780" cy="24" r="3" fill="#15161e" stroke="#7aa2f7" stroke-width="1.2"/><circle cx="780" cy="42" r="3" fill="#15161e" stroke="#7aa2f7" stroke-width="1.2"/>
  <rect x="458" y="20" width="56" height="24" rx="3" fill="#15161e" stroke="#dea584" stroke-width="1.3"/><text x="486" y="36" text-anchor="middle" font-family="'JetBrains Mono','Cascadia Code','Fira Code','SFMono-Regular','Consolas','Liberation Mono',monospace" font-size="9.5" fill="#dea584" letter-spacing="1">TQ-1.58</text><circle cx="465" cy="25" r="1.6" fill="#9aa5ce"/><line x1="464" y1="14" x2="464" y2="20" stroke="#565f89" stroke-width="1.4"/><line x1="464" y1="44" x2="464" y2="50" stroke="#565f89" stroke-width="1.4"/><line x1="475" y1="14" x2="475" y2="20" stroke="#565f89" stroke-width="1.4"/><line x1="475" y1="44" x2="475" y2="50" stroke="#565f89" stroke-width="1.4"/><line x1="486" y1="14" x2="486" y2="20" stroke="#565f89" stroke-width="1.4"/><line x1="486" y1="44" x2="486" y2="50" stroke="#565f89" stroke-width="1.4"/><line x1="497" y1="14" x2="497" y2="20" stroke="#565f89" stroke-width="1.4"/><line x1="497" y1="44" x2="497" y2="50" stroke="#565f89" stroke-width="1.4"/><line x1="508" y1="14" x2="508" y2="20" stroke="#565f89" stroke-width="1.4"/><line x1="508" y1="44" x2="508" y2="50" stroke="#565f89" stroke-width="1.4"/>
  <circle cx="30" cy="42" r="3.2" fill="#dea584" filter="url(#dg_cc)"/>
  <circle cx="970" cy="42" r="3.2" fill="#7aa2f7" filter="url(#dg_cc)"/>
  <circle r="2.6" fill="#9ece6a" filter="url(#dg_cc)">
    <animateMotion dur="7s" repeatCount="indefinite" path="M30,42 H240 V24 H420 V42 H588 V24 H780 V42 H970"/>
    <animate attributeName="opacity" values="0;1;1;1;0" keyTimes="0;0.06;0.5;0.94;1" dur="7s" repeatCount="indefinite"/>
  </circle>
</svg>