<svg xmlns="http://www.w3.org/2000/svg" width="1000" height="574" viewBox="0 0 1000 574" role="img" aria-label="Flagship projects with live stars, forks, commits and activity" font-family="'Segoe UI','Inter',system-ui,-apple-system,'Helvetica Neue',sans-serif">
  <title>Flagship projects with live stars, forks, commits and activity</title>
  
  <defs>
    <linearGradient id="panel" x1="0" y1="0" x2="0.5" y2="1">
      <stop offset="0" stop-color="#1f2335"/>
      <stop offset="1" stop-color="#15161e"/>
    </linearGradient>
    <linearGradient id="border" x1="0" y1="0" x2="1" y2="1">
      <stop offset="0" stop-color="#dea584">
        <animate attributeName="stop-color" values="#dea584;#7aa2f7;#bb9af7;#7dcfff;#dea584" keyTimes="0;0.28;0.55;0.8;1" calcMode="spline" keySplines="0.4 0 0.2 1;0.4 0 0.2 1;0.4 0 0.2 1;0.4 0 0.2 1" dur="18s" repeatCount="indefinite"/>
      </stop>
      <stop offset="0.5" stop-color="#bb9af7">
        <animate attributeName="stop-color" values="#bb9af7;#7dcfff;#dea584;#7aa2f7;#bb9af7" keyTimes="0;0.28;0.55;0.8;1" calcMode="spline" keySplines="0.4 0 0.2 1;0.4 0 0.2 1;0.4 0 0.2 1;0.4 0 0.2 1" dur="18s" repeatCount="indefinite"/>
      </stop>
      <stop offset="1" stop-color="#7aa2f7">
        <animate attributeName="stop-color" values="#7aa2f7;#dea584;#7dcfff;#bb9af7;#7aa2f7" keyTimes="0;0.28;0.55;0.8;1" calcMode="spline" keySplines="0.4 0 0.2 1;0.4 0 0.2 1;0.4 0 0.2 1;0.4 0 0.2 1" dur="18s" repeatCount="indefinite"/>
      </stop>
    </linearGradient>
    <linearGradient id="accentbar" x1="0" y1="0" x2="1" y2="0">
      <stop offset="0" stop-color="#dea584"/>
      <stop offset="1" stop-color="#dea584" stop-opacity="0"/>
    </linearGradient>
    <linearGradient id="tophl" x1="0" y1="0" x2="0" y2="1">
      <stop offset="0" stop-color="#ffffff" stop-opacity="0.05"/>
      <stop offset="1" stop-color="#ffffff" stop-opacity="0"/>
    </linearGradient>
    <filter id="glow" x="-40%" y="-40%" width="180%" height="180%">
      <feGaussianBlur stdDeviation="1.7" result="b"/>
      <feMerge><feMergeNode in="b"/><feMergeNode in="SourceGraphic"/></feMerge>
    </filter>
    <filter id="softglow" x="-60%" y="-60%" width="220%" height="220%">
      <feGaussianBlur stdDeviation="4.5" result="b"/>
      <feMerge><feMergeNode in="b"/><feMergeNode in="SourceGraphic"/></feMerge>
    </filter>
    <pattern id="grid" width="28" height="28" patternUnits="userSpaceOnUse">
      <path d="M28 0 L0 0 0 28" fill="none" stroke="#565f89" stroke-width="0.5" opacity="0.08"/>
    </pattern>
  </defs>
  <rect x="2" y="2" width="996" height="570" rx="15" fill="url(#panel)"/>
  <rect x="6" y="6" width="988" height="562" rx="13" fill="url(#grid)"/><text x="24" y="64" font-family="'JetBrains Mono','Cascadia Code','Fira Code','SFMono-Regular','Consolas','Liberation Mono',monospace" font-size="11" fill="#bb9af7" opacity="0.045">−1</text><text x="154" y="64" font-family="'JetBrains Mono','Cascadia Code','Fira Code','SFMono-Regular','Consolas','Liberation Mono',monospace" font-size="11" fill="#bb9af7" opacity="0.045">0</text><text x="284" y="64" font-family="'JetBrains Mono','Cascadia Code','Fira Code','SFMono-Regular','Consolas','Liberation Mono',monospace" font-size="11" fill="#bb9af7" opacity="0.045">+1</text><text x="414" y="64" font-family="'JetBrains Mono','Cascadia Code','Fira Code','SFMono-Regular','Consolas','Liberation Mono',monospace" font-size="11" fill="#bb9af7" opacity="0.045">−1</text><text x="544" y="64" font-family="'JetBrains Mono','Cascadia Code','Fira Code','SFMono-Regular','Consolas','Liberation Mono',monospace" font-size="11" fill="#bb9af7" opacity="0.045">0</text><text x="674" y="64" font-family="'JetBrains Mono','Cascadia Code','Fira Code','SFMono-Regular','Consolas','Liberation Mono',monospace" font-size="11" fill="#bb9af7" opacity="0.045">+1</text><text x="804" y="64" font-family="'JetBrains Mono','Cascadia Code','Fira Code','SFMono-Regular','Consolas','Liberation Mono',monospace" font-size="11" fill="#bb9af7" opacity="0.045">1</text><text x="934" y="64" font-family="'JetBrains Mono','Cascadia Code','Fira Code','SFMono-Regular','Consolas','Liberation Mono',monospace" font-size="11" fill="#bb9af7" opacity="0.045">0</text><text x="24" y="140" font-family="'JetBrains Mono','Cascadia Code','Fira Code','SFMono-Regular','Consolas','Liberation Mono',monospace" font-size="11" fill="#bb9af7" opacity="0.045">−1</text><text x="154" y="140" font-family="'JetBrains Mono','Cascadia Code','Fira Code','SFMono-Regular','Consolas','Liberation Mono',monospace" font-size="11" fill="#bb9af7" opacity="0.045">0</text><text x="284" y="140" font-family="'JetBrains Mono','Cascadia Code','Fira Code','SFMono-Regular','Consolas','Liberation Mono',monospace" font-size="11" fill="#bb9af7" opacity="0.045">+1</text><text x="414" y="140" font-family="'JetBrains Mono','Cascadia Code','Fira Code','SFMono-Regular','Consolas','Liberation Mono',monospace" font-size="11" fill="#bb9af7" opacity="0.045">−1</text><text x="544" y="140" font-family="'JetBrains Mono','Cascadia Code','Fira Code','SFMono-Regular','Consolas','Liberation Mono',monospace" font-size="11" fill="#bb9af7" opacity="0.045">0</text><text x="674" y="140" font-family="'JetBrains Mono','Cascadia Code','Fira Code','SFMono-Regular','Consolas','Liberation Mono',monospace" font-size="11" fill="#bb9af7" opacity="0.045">+1</text><text x="804" y="140" font-family="'JetBrains Mono','Cascadia Code','Fira Code','SFMono-Regular','Consolas','Liberation Mono',monospace" font-size="11" fill="#bb9af7" opacity="0.045">1</text><text x="934" y="140" font-family="'JetBrains Mono','Cascadia Code','Fira Code','SFMono-Regular','Consolas','Liberation Mono',monospace" font-size="11" fill="#bb9af7" opacity="0.045">0</text><text x="24" y="216" font-family="'JetBrains Mono','Cascadia Code','Fira Code','SFMono-Regular','Consolas','Liberation Mono',monospace" font-size="11" fill="#bb9af7" opacity="0.045">−1</text><text x="154" y="216" font-family="'JetBrains Mono','Cascadia Code','Fira Code','SFMono-Regular','Consolas','Liberation Mono',monospace" font-size="11" fill="#bb9af7" opacity="0.045">0</text><text x="284" y="216" font-family="'JetBrains Mono','Cascadia Code','Fira Code','SFMono-Regular','Consolas','Liberation Mono',monospace" font-size="11" fill="#bb9af7" opacity="0.045">+1</text><text x="414" y="216" font-family="'JetBrains Mono','Cascadia Code','Fira Code','SFMono-Regular','Consolas','Liberation Mono',monospace" font-size="11" fill="#bb9af7" opacity="0.045">−1</text><text x="544" y="216" font-family="'JetBrains Mono','Cascadia Code','Fira Code','SFMono-Regular','Consolas','Liberation Mono',monospace" font-size="11" fill="#bb9af7" opacity="0.045">0</text><text x="674" y="216" font-family="'JetBrains Mono','Cascadia Code','Fira Code','SFMono-Regular','Consolas','Liberation Mono',monospace" font-size="11" fill="#bb9af7" opacity="0.045">+1</text><text x="804" y="216" font-family="'JetBrains Mono','Cascadia Code','Fira Code','SFMono-Regular','Consolas','Liberation Mono',monospace" font-size="11" fill="#bb9af7" opacity="0.045">1</text><text x="934" y="216" font-family="'JetBrains Mono','Cascadia Code','Fira Code','SFMono-Regular','Consolas','Liberation Mono',monospace" font-size="11" fill="#bb9af7" opacity="0.045">0</text><text x="24" y="292" font-family="'JetBrains Mono','Cascadia Code','Fira Code','SFMono-Regular','Consolas','Liberation Mono',monospace" font-size="11" fill="#bb9af7" opacity="0.045">−1</text><text x="154" y="292" font-family="'JetBrains Mono','Cascadia Code','Fira Code','SFMono-Regular','Consolas','Liberation Mono',monospace" font-size="11" fill="#bb9af7" opacity="0.045">0</text><text x="284" y="292" font-family="'JetBrains Mono','Cascadia Code','Fira Code','SFMono-Regular','Consolas','Liberation Mono',monospace" font-size="11" fill="#bb9af7" opacity="0.045">+1</text><text x="414" y="292" font-family="'JetBrains Mono','Cascadia Code','Fira Code','SFMono-Regular','Consolas','Liberation Mono',monospace" font-size="11" fill="#bb9af7" opacity="0.045">−1</text><text x="544" y="292" font-family="'JetBrains Mono','Cascadia Code','Fira Code','SFMono-Regular','Consolas','Liberation Mono',monospace" font-size="11" fill="#bb9af7" opacity="0.045">0</text><text x="674" y="292" font-family="'JetBrains Mono','Cascadia Code','Fira Code','SFMono-Regular','Consolas','Liberation Mono',monospace" font-size="11" fill="#bb9af7" opacity="0.045">+1</text><text x="804" y="292" font-family="'JetBrains Mono','Cascadia Code','Fira Code','SFMono-Regular','Consolas','Liberation Mono',monospace" font-size="11" fill="#bb9af7" opacity="0.045">1</text><text x="934" y="292" font-family="'JetBrains Mono','Cascadia Code','Fira Code','SFMono-Regular','Consolas','Liberation Mono',monospace" font-size="11" fill="#bb9af7" opacity="0.045">0</text><text x="24" y="368" font-family="'JetBrains Mono','Cascadia Code','Fira Code','SFMono-Regular','Consolas','Liberation Mono',monospace" font-size="11" fill="#bb9af7" opacity="0.045">−1</text><text x="154" y="368" font-family="'JetBrains Mono','Cascadia Code','Fira Code','SFMono-Regular','Consolas','Liberation Mono',monospace" font-size="11" fill="#bb9af7" opacity="0.045">0</text><text x="284" y="368" font-family="'JetBrains Mono','Cascadia Code','Fira Code','SFMono-Regular','Consolas','Liberation Mono',monospace" font-size="11" fill="#bb9af7" opacity="0.045">+1</text><text x="414" y="368" font-family="'JetBrains Mono','Cascadia Code','Fira Code','SFMono-Regular','Consolas','Liberation Mono',monospace" font-size="11" fill="#bb9af7" opacity="0.045">−1</text><text x="544" y="368" font-family="'JetBrains Mono','Cascadia Code','Fira Code','SFMono-Regular','Consolas','Liberation Mono',monospace" font-size="11" fill="#bb9af7" opacity="0.045">0</text><text x="674" y="368" font-family="'JetBrains Mono','Cascadia Code','Fira Code','SFMono-Regular','Consolas','Liberation Mono',monospace" font-size="11" fill="#bb9af7" opacity="0.045">+1</text><text x="804" y="368" font-family="'JetBrains Mono','Cascadia Code','Fira Code','SFMono-Regular','Consolas','Liberation Mono',monospace" font-size="11" fill="#bb9af7" opacity="0.045">1</text><text x="934" y="368" font-family="'JetBrains Mono','Cascadia Code','Fira Code','SFMono-Regular','Consolas','Liberation Mono',monospace" font-size="11" fill="#bb9af7" opacity="0.045">0</text><text x="24" y="444" font-family="'JetBrains Mono','Cascadia Code','Fira Code','SFMono-Regular','Consolas','Liberation Mono',monospace" font-size="11" fill="#bb9af7" opacity="0.045">−1</text><text x="154" y="444" font-family="'JetBrains Mono','Cascadia Code','Fira Code','SFMono-Regular','Consolas','Liberation Mono',monospace" font-size="11" fill="#bb9af7" opacity="0.045">0</text><text x="284" y="444" font-family="'JetBrains Mono','Cascadia Code','Fira Code','SFMono-Regular','Consolas','Liberation Mono',monospace" font-size="11" fill="#bb9af7" opacity="0.045">+1</text><text x="414" y="444" font-family="'JetBrains Mono','Cascadia Code','Fira Code','SFMono-Regular','Consolas','Liberation Mono',monospace" font-size="11" fill="#bb9af7" opacity="0.045">−1</text><text x="544" y="444" font-family="'JetBrains Mono','Cascadia Code','Fira Code','SFMono-Regular','Consolas','Liberation Mono',monospace" font-size="11" fill="#bb9af7" opacity="0.045">0</text><text x="674" y="444" font-family="'JetBrains Mono','Cascadia Code','Fira Code','SFMono-Regular','Consolas','Liberation Mono',monospace" font-size="11" fill="#bb9af7" opacity="0.045">+1</text><text x="804" y="444" font-family="'JetBrains Mono','Cascadia Code','Fira Code','SFMono-Regular','Consolas','Liberation Mono',monospace" font-size="11" fill="#bb9af7" opacity="0.045">1</text><text x="934" y="444" font-family="'JetBrains Mono','Cascadia Code','Fira Code','SFMono-Regular','Consolas','Liberation Mono',monospace" font-size="11" fill="#bb9af7" opacity="0.045">0</text><text x="24" y="520" font-family="'JetBrains Mono','Cascadia Code','Fira Code','SFMono-Regular','Consolas','Liberation Mono',monospace" font-size="11" fill="#bb9af7" opacity="0.045">−1</text><text x="154" y="520" font-family="'JetBrains Mono','Cascadia Code','Fira Code','SFMono-Regular','Consolas','Liberation Mono',monospace" font-size="11" fill="#bb9af7" opacity="0.045">0</text><text x="284" y="520" font-family="'JetBrains Mono','Cascadia Code','Fira Code','SFMono-Regular','Consolas','Liberation Mono',monospace" font-size="11" fill="#bb9af7" opacity="0.045">+1</text><text x="414" y="520" font-family="'JetBrains Mono','Cascadia Code','Fira Code','SFMono-Regular','Consolas','Liberation Mono',monospace" font-size="11" fill="#bb9af7" opacity="0.045">−1</text><text x="544" y="520" font-family="'JetBrains Mono','Cascadia Code','Fira Code','SFMono-Regular','Consolas','Liberation Mono',monospace" font-size="11" fill="#bb9af7" opacity="0.045">0</text><text x="674" y="520" font-family="'JetBrains Mono','Cascadia Code','Fira Code','SFMono-Regular','Consolas','Liberation Mono',monospace" font-size="11" fill="#bb9af7" opacity="0.045">+1</text><text x="804" y="520" font-family="'JetBrains Mono','Cascadia Code','Fira Code','SFMono-Regular','Consolas','Liberation Mono',monospace" font-size="11" fill="#bb9af7" opacity="0.045">1</text><text x="934" y="520" font-family="'JetBrains Mono','Cascadia Code','Fira Code','SFMono-Regular','Consolas','Liberation Mono',monospace" font-size="11" fill="#bb9af7" opacity="0.045">0</text>
  <rect x="2" y="2" width="996" height="24" rx="15" fill="url(#tophl)"/>
  <rect x="2.5" y="2.5" width="995" height="569" rx="14" fill="none" stroke="url(#border)" stroke-width="2"/>
  <rect x="3.5" y="3.5" width="993" height="567" rx="13" fill="none" stroke="#292e42" stroke-width="1" opacity="0.6"/>
  <path d="M2 18 Q2 2 18 2" fill="none" stroke="#dea584" stroke-width="2.4" opacity="0.9"/>
  <circle cx="24" cy="21" r="5.5" fill="#f7768e" opacity="0.92"/><circle cx="44" cy="21" r="5.5" fill="#e0af68" opacity="0.92"/><circle cx="64" cy="21" r="5.5" fill="#9ece6a" opacity="0.92"/>
  <text x="96" y="25" font-family="'JetBrains Mono','Cascadia Code','Fira Code','SFMono-Regular','Consolas','Liberation Mono',monospace" font-size="13" fill="#a9b1d6">~/flagship/projects.toml</text>
  <circle cx="975" cy="21" r="3.5" fill="#dea584"><animate attributeName="opacity" values="1;0.4;1" dur="2.6s" repeatCount="indefinite"/></circle><text x="964" y="25" text-anchor="end" font-family="'JetBrains Mono','Cascadia Code','Fira Code','SFMono-Regular','Consolas','Liberation Mono',monospace" font-size="12" fill="#9aa5ce">4/4 live</text>
  <rect x="24" y="42" width="952" height="2" fill="url(#accentbar)"/>
  <g transform="translate(0,42)">
    <text x="24" y="32" font-family="'JetBrains Mono','Cascadia Code','Fira Code','SFMono-Regular','Consolas','Liberation Mono',monospace" font-size="12" fill="#9aa5ce" letter-spacing="1">FLAGSHIP BUILDS · live stats · mirrors summed across platforms</text><path d="M30,78 l6,6 l-6,6 l-6,-6 z" fill="#ff9e64"/><text x="50" y="90" font-family="'JetBrains Mono','Cascadia Code','Fira Code','SFMono-Regular','Consolas','Liberation Mono',monospace" font-size="18" font-weight="800" fill="#c0caf5">AmneziaWG Architect</text><text x="269" y="89" font-family="'JetBrains Mono','Cascadia Code','Fira Code','SFMono-Regular','Consolas','Liberation Mono',monospace" font-size="11" fill="#9aa5ce">· via GitHub</text><text x="50" y="112" font-family="'JetBrains Mono','Cascadia Code','Fira Code','SFMono-Regular','Consolas','Liberation Mono',monospace" font-size="12" fill="#7dcfff">↗ architect.vai-rice.space</text><text x="50" y="134" font-family="'Segoe UI','Inter',system-ui,-apple-system,'Helvetica Neue',sans-serif" font-size="12.5" fill="#a9b1d6">Client-side generator of DPI-evasion profiles (QUIC/TLS/SIP mimicry).</text><text x="50" y="156" font-family="'JetBrains Mono','Cascadia Code','Fira Code','SFMono-Regular','Consolas','Liberation Mono',monospace" font-size="11" fill="#9aa5ce">#vpn  #wireguard  #anti-censorship</text><text x="596" y="92" font-family="'JetBrains Mono','Cascadia Code','Fira Code','SFMono-Regular','Consolas','Liberation Mono',monospace" font-size="13" fill="#e0af68">★</text><text x="614" y="92" font-family="'JetBrains Mono','Cascadia Code','Fira Code','SFMono-Regular','Consolas','Liberation Mono',monospace" font-size="13.5" font-weight="700" fill="#c0caf5">233</text><text x="658" y="92" font-family="'JetBrains Mono','Cascadia Code','Fira Code','SFMono-Regular','Consolas','Liberation Mono',monospace" font-size="13" fill="#7aa2f7">⑂</text><text x="676" y="92" font-family="'JetBrains Mono','Cascadia Code','Fira Code','SFMono-Regular','Consolas','Liberation Mono',monospace" font-size="13.5" font-weight="700" fill="#c0caf5">34</text><text x="711" y="92" font-family="'JetBrains Mono','Cascadia Code','Fira Code','SFMono-Regular','Consolas','Liberation Mono',monospace" font-size="13" fill="#9ece6a">⧗</text><text x="729" y="92" font-family="'JetBrains Mono','Cascadia Code','Fira Code','SFMono-Regular','Consolas','Liberation Mono',monospace" font-size="13.5" font-weight="700" fill="#c0caf5">347 commits</text><text x="842" y="92" font-family="'JetBrains Mono','Cascadia Code','Fira Code','SFMono-Regular','Consolas','Liberation Mono',monospace" font-size="13" fill="#f7768e">◌</text><text x="860" y="92" font-family="'JetBrains Mono','Cascadia Code','Fira Code','SFMono-Regular','Consolas','Liberation Mono',monospace" font-size="13.5" font-weight="700" fill="#c0caf5">19 open</text><rect x="596.0" y="116.0" width="279.6" height="7" rx="2" fill="#7dcfff"/><rect x="877.1" y="116.0" width="78.3" height="7" rx="2" fill="#9ece6a"/><rect x="957.0" y="116.0" width="17.5" height="7" rx="2" fill="#7dcfff"/><text x="976.0" y="111.0" text-anchor="end" font-family="'JetBrains Mono','Cascadia Code','Fira Code','SFMono-Regular','Consolas','Liberation Mono',monospace" font-size="10.5" fill="#9aa5ce">TypeScript 74%</text><rect x="596.0" y="136.8" width="10.7" height="23.2" rx="1" fill="#ff9e64"/><rect x="608.7" y="130.0" width="10.7" height="30.0" rx="1" fill="#ff9e64"/><rect x="621.3" y="141.0" width="10.7" height="19.0" rx="1" fill="#ff9e64"/><rect x="634.0" y="130.0" width="10.7" height="30.0" rx="1" fill="#ff9e64"/><rect x="646.7" y="158.5" width="10.7" height="1.5" rx="1" fill="#292e42"/><rect x="659.3" y="158.5" width="10.7" height="1.5" rx="1" fill="#292e42"/><rect x="672.0" y="158.5" width="10.7" height="1.5" rx="1" fill="#292e42"/><rect x="684.7" y="141.0" width="10.7" height="19.0" rx="1" fill="#ff9e64"/><rect x="697.3" y="158.5" width="10.7" height="1.5" rx="1" fill="#292e42"/><rect x="710.0" y="130.0" width="10.7" height="30.0" rx="1" fill="#ff9e64"/><rect x="722.7" y="133.2" width="10.7" height="26.8" rx="1" fill="#ff9e64"/><rect x="735.3" y="158.5" width="10.7" height="1.5" rx="1" fill="#292e42"/><rect x="748.0" y="158.5" width="10.7" height="1.5" rx="1" fill="#292e42"/><rect x="760.7" y="141.0" width="10.7" height="19.0" rx="1" fill="#ff9e64"/><rect x="773.3" y="130.0" width="10.7" height="30.0" rx="1" fill="#ff9e64"/><rect x="786.0" y="158.5" width="10.7" height="1.5" rx="1" fill="#292e42"/><rect x="798.7" y="141.0" width="10.7" height="19.0" rx="1" fill="#ff9e64"/><rect x="811.3" y="158.5" width="10.7" height="1.5" rx="1" fill="#292e42"/><rect x="824.0" y="158.5" width="10.7" height="1.5" rx="1" fill="#292e42"/><rect x="836.7" y="133.2" width="10.7" height="26.8" rx="1" fill="#ff9e64"/><rect x="849.3" y="141.0" width="10.7" height="19.0" rx="1" fill="#ff9e64"/><rect x="862.0" y="158.5" width="10.7" height="1.5" rx="1" fill="#292e42"/><rect x="874.7" y="141.0" width="10.7" height="19.0" rx="1" fill="#ff9e64"/><rect x="887.3" y="133.2" width="10.7" height="26.8" rx="1" fill="#ff9e64"/><rect x="900.0" y="158.5" width="10.7" height="1.5" rx="1" fill="#292e42"/><rect x="912.7" y="158.5" width="10.7" height="1.5" rx="1" fill="#292e42"/><rect x="925.3" y="141.0" width="10.7" height="19.0" rx="1" fill="#ff9e64"/><rect x="938.0" y="141.0" width="10.7" height="19.0" rx="1" fill="#ff9e64"/><rect x="950.7" y="158.5" width="10.7" height="1.5" rx="1" fill="#292e42"/><rect x="963.3" y="141.0" width="10.7" height="19.0" rx="1" fill="#ff9e64"/><line x1="24" y1="170" x2="976" y2="170" stroke="#292e42" stroke-width="1" opacity="0.8"/><path d="M30,196 l6,6 l-6,6 l-6,-6 z" fill="#f7768e"/><text x="50" y="208" font-family="'JetBrains Mono','Cascadia Code','Fira Code','SFMono-Regular','Consolas','Liberation Mono',monospace" font-size="18" font-weight="800" fill="#c0caf5">The Wall Dev</text><text x="190" y="207" font-family="'JetBrains Mono','Cascadia Code','Fira Code','SFMono-Regular','Consolas','Liberation Mono',monospace" font-size="11" fill="#9aa5ce">· via GitHub</text><text x="50" y="230" font-family="'JetBrains Mono','Cascadia Code','Fira Code','SFMono-Regular','Consolas','Liberation Mono',monospace" font-size="12" fill="#7dcfff">↗ the-wall.vai-rice.space</text><text x="50" y="252" font-family="'Segoe UI','Inter',system-ui,-apple-system,'Helvetica Neue',sans-serif" font-size="12.5" fill="#a9b1d6">Community tooling for the Filian world — the dev side of the Wall.</text><text x="50" y="274" font-family="'JetBrains Mono','Cascadia Code','Fira Code','SFMono-Regular','Consolas','Liberation Mono',monospace" font-size="11" fill="#9aa5ce">#community  #extension  #filian</text><text x="596" y="210" font-family="'JetBrains Mono','Cascadia Code','Fira Code','SFMono-Regular','Consolas','Liberation Mono',monospace" font-size="13" fill="#e0af68">★</text><text x="614" y="210" font-family="'JetBrains Mono','Cascadia Code','Fira Code','SFMono-Regular','Consolas','Liberation Mono',monospace" font-size="13.5" font-weight="700" fill="#c0caf5">42</text><text x="649" y="210" font-family="'JetBrains Mono','Cascadia Code','Fira Code','SFMono-Regular','Consolas','Liberation Mono',monospace" font-size="13" fill="#7aa2f7">⑂</text><text x="667" y="210" font-family="'JetBrains Mono','Cascadia Code','Fira Code','SFMono-Regular','Consolas','Liberation Mono',monospace" font-size="13.5" font-weight="700" fill="#c0caf5">6</text><text x="694" y="210" font-family="'JetBrains Mono','Cascadia Code','Fira Code','SFMono-Regular','Consolas','Liberation Mono',monospace" font-size="13" fill="#9ece6a">⧗</text><text x="712" y="210" font-family="'JetBrains Mono','Cascadia Code','Fira Code','SFMono-Regular','Consolas','Liberation Mono',monospace" font-size="13.5" font-weight="700" fill="#c0caf5">152 commits</text><text x="824" y="210" font-family="'JetBrains Mono','Cascadia Code','Fira Code','SFMono-Regular','Consolas','Liberation Mono',monospace" font-size="13" fill="#f7768e">◌</text><text x="842" y="210" font-family="'JetBrains Mono','Cascadia Code','Fira Code','SFMono-Regular','Consolas','Liberation Mono',monospace" font-size="13.5" font-weight="700" fill="#c0caf5">6 open</text><rect x="596.0" y="234.0" width="350.4" height="7" rx="2" fill="#7dcfff"/><rect x="947.9" y="234.0" width="26.6" height="7" rx="2" fill="#f7768e"/><text x="976.0" y="229.0" text-anchor="end" font-family="'JetBrains Mono','Cascadia Code','Fira Code','SFMono-Regular','Consolas','Liberation Mono',monospace" font-size="10.5" fill="#9aa5ce">TypeScript 93%</text><rect x="596.0" y="256.8" width="10.7" height="21.2" rx="1" fill="#f7768e"/><rect x="608.7" y="252.0" width="10.7" height="26.0" rx="1" fill="#f7768e"/><rect x="621.3" y="263.0" width="10.7" height="15.0" rx="1" fill="#f7768e"/><rect x="634.0" y="276.5" width="10.7" height="1.5" rx="1" fill="#292e42"/><rect x="646.7" y="276.5" width="10.7" height="1.5" rx="1" fill="#292e42"/><rect x="659.3" y="256.8" width="10.7" height="21.2" rx="1" fill="#f7768e"/><rect x="672.0" y="276.5" width="10.7" height="1.5" rx="1" fill="#292e42"/><rect x="684.7" y="248.0" width="10.7" height="30.0" rx="1" fill="#f7768e"/><rect x="697.3" y="276.5" width="10.7" height="1.5" rx="1" fill="#292e42"/><rect x="710.0" y="263.0" width="10.7" height="15.0" rx="1" fill="#f7768e"/><rect x="722.7" y="276.5" width="10.7" height="1.5" rx="1" fill="#292e42"/><rect x="735.3" y="276.5" width="10.7" height="1.5" rx="1" fill="#292e42"/><rect x="748.0" y="252.0" width="10.7" height="26.0" rx="1" fill="#f7768e"/><rect x="760.7" y="276.5" width="10.7" height="1.5" rx="1" fill="#292e42"/><rect x="773.3" y="276.5" width="10.7" height="1.5" rx="1" fill="#292e42"/><rect x="786.0" y="276.5" width="10.7" height="1.5" rx="1" fill="#292e42"/><rect x="798.7" y="276.5" width="10.7" height="1.5" rx="1" fill="#292e42"/><rect x="811.3" y="276.5" width="10.7" height="1.5" rx="1" fill="#292e42"/><rect x="824.0" y="276.5" width="10.7" height="1.5" rx="1" fill="#292e42"/><rect x="836.7" y="276.5" width="10.7" height="1.5" rx="1" fill="#292e42"/><rect x="849.3" y="276.5" width="10.7" height="1.5" rx="1" fill="#292e42"/><rect x="862.0" y="256.8" width="10.7" height="21.2" rx="1" fill="#f7768e"/><rect x="874.7" y="276.5" width="10.7" height="1.5" rx="1" fill="#292e42"/><rect x="887.3" y="248.0" width="10.7" height="30.0" rx="1" fill="#f7768e"/><rect x="900.0" y="276.5" width="10.7" height="1.5" rx="1" fill="#292e42"/><rect x="912.7" y="248.0" width="10.7" height="30.0" rx="1" fill="#f7768e"/><rect x="925.3" y="276.5" width="10.7" height="1.5" rx="1" fill="#292e42"/><rect x="938.0" y="276.5" width="10.7" height="1.5" rx="1" fill="#292e42"/><rect x="950.7" y="276.5" width="10.7" height="1.5" rx="1" fill="#292e42"/><rect x="963.3" y="276.5" width="10.7" height="1.5" rx="1" fill="#292e42"/><line x1="24" y1="288" x2="976" y2="288" stroke="#292e42" stroke-width="1" opacity="0.8"/><path d="M30,314 l6,6 l-6,6 l-6,-6 z" fill="#2ac3de"/><text x="50" y="326" font-family="'JetBrains Mono','Cascadia Code','Fira Code','SFMono-Regular','Consolas','Liberation Mono',monospace" font-size="18" font-weight="800" fill="#c0caf5">Hatsune Miku VS Code Theme</text><text x="348" y="325" font-family="'JetBrains Mono','Cascadia Code','Fira Code','SFMono-Regular','Consolas','Liberation Mono',monospace" font-size="11" fill="#9aa5ce">· via GitHub</text><text x="50" y="370" font-family="'Segoe UI','Inter',system-ui,-apple-system,'Helvetica Neue',sans-serif" font-size="12.5" fill="#a9b1d6">The editor should match the playlist — teal it all the way down.</text><text x="50" y="392" font-family="'JetBrains Mono','Cascadia Code','Fira Code','SFMono-Regular','Consolas','Liberation Mono',monospace" font-size="11" fill="#9aa5ce">#vscode  #theme  #miku</text><text x="596" y="328" font-family="'JetBrains Mono','Cascadia Code','Fira Code','SFMono-Regular','Consolas','Liberation Mono',monospace" font-size="13" fill="#e0af68">★</text><text x="614" y="328" font-family="'JetBrains Mono','Cascadia Code','Fira Code','SFMono-Regular','Consolas','Liberation Mono',monospace" font-size="13.5" font-weight="700" fill="#c0caf5">24</text><text x="649" y="328" font-family="'JetBrains Mono','Cascadia Code','Fira Code','SFMono-Regular','Consolas','Liberation Mono',monospace" font-size="13" fill="#7aa2f7">⑂</text><text x="667" y="328" font-family="'JetBrains Mono','Cascadia Code','Fira Code','SFMono-Regular','Consolas','Liberation Mono',monospace" font-size="13.5" font-weight="700" fill="#c0caf5">4</text><text x="694" y="328" font-family="'JetBrains Mono','Cascadia Code','Fira Code','SFMono-Regular','Consolas','Liberation Mono',monospace" font-size="13" fill="#9ece6a">⧗</text><text x="712" y="328" font-family="'JetBrains Mono','Cascadia Code','Fira Code','SFMono-Regular','Consolas','Liberation Mono',monospace" font-size="13.5" font-weight="700" fill="#c0caf5">41 commits</text><text x="816" y="328" font-family="'JetBrains Mono','Cascadia Code','Fira Code','SFMono-Regular','Consolas','Liberation Mono',monospace" font-size="13" fill="#f7768e">◌</text><text x="834" y="328" font-family="'JetBrains Mono','Cascadia Code','Fira Code','SFMono-Regular','Consolas','Liberation Mono',monospace" font-size="13.5" font-weight="700" fill="#c0caf5">2 open</text><rect x="596.0" y="352.0" width="378.5" height="7" rx="2" fill="#e0af68"/><text x="976.0" y="347.0" text-anchor="end" font-family="'JetBrains Mono','Cascadia Code','Fira Code','SFMono-Regular','Consolas','Liberation Mono',monospace" font-size="10.5" fill="#9aa5ce">JavaScript 100%</text><rect x="596.0" y="394.5" width="10.7" height="1.5" rx="1" fill="#292e42"/><rect x="608.7" y="394.5" width="10.7" height="1.5" rx="1" fill="#292e42"/><rect x="621.3" y="394.5" width="10.7" height="1.5" rx="1" fill="#292e42"/><rect x="634.0" y="394.5" width="10.7" height="1.5" rx="1" fill="#292e42"/><rect x="646.7" y="394.5" width="10.7" height="1.5" rx="1" fill="#292e42"/><rect x="659.3" y="394.5" width="10.7" height="1.5" rx="1" fill="#292e42"/><rect x="672.0" y="394.5" width="10.7" height="1.5" rx="1" fill="#292e42"/><rect x="684.7" y="394.5" width="10.7" height="1.5" rx="1" fill="#292e42"/><rect x="697.3" y="394.5" width="10.7" height="1.5" rx="1" fill="#292e42"/><rect x="710.0" y="394.5" width="10.7" height="1.5" rx="1" fill="#292e42"/><rect x="722.7" y="394.5" width="10.7" height="1.5" rx="1" fill="#292e42"/><rect x="735.3" y="394.5" width="10.7" height="1.5" rx="1" fill="#292e42"/><rect x="748.0" y="394.5" width="10.7" height="1.5" rx="1" fill="#292e42"/><rect x="760.7" y="374.8" width="10.7" height="21.2" rx="1" fill="#2ac3de"/><rect x="773.3" y="394.5" width="10.7" height="1.5" rx="1" fill="#292e42"/><rect x="786.0" y="394.5" width="10.7" height="1.5" rx="1" fill="#292e42"/><rect x="798.7" y="394.5" width="10.7" height="1.5" rx="1" fill="#292e42"/><rect x="811.3" y="394.5" width="10.7" height="1.5" rx="1" fill="#292e42"/><rect x="824.0" y="394.5" width="10.7" height="1.5" rx="1" fill="#292e42"/><rect x="836.7" y="394.5" width="10.7" height="1.5" rx="1" fill="#292e42"/><rect x="849.3" y="374.8" width="10.7" height="21.2" rx="1" fill="#2ac3de"/><rect x="862.0" y="366.0" width="10.7" height="30.0" rx="1" fill="#2ac3de"/><rect x="874.7" y="366.0" width="10.7" height="30.0" rx="1" fill="#2ac3de"/><rect x="887.3" y="374.8" width="10.7" height="21.2" rx="1" fill="#2ac3de"/><rect x="900.0" y="394.5" width="10.7" height="1.5" rx="1" fill="#292e42"/><rect x="912.7" y="394.5" width="10.7" height="1.5" rx="1" fill="#292e42"/><rect x="925.3" y="394.5" width="10.7" height="1.5" rx="1" fill="#292e42"/><rect x="938.0" y="394.5" width="10.7" height="1.5" rx="1" fill="#292e42"/><rect x="950.7" y="394.5" width="10.7" height="1.5" rx="1" fill="#292e42"/><rect x="963.3" y="394.5" width="10.7" height="1.5" rx="1" fill="#292e42"/><line x1="24" y1="406" x2="976" y2="406" stroke="#292e42" stroke-width="1" opacity="0.8"/><path d="M30,432 l6,6 l-6,6 l-6,-6 z" fill="#bb9af7"/><text x="50" y="444" font-family="'JetBrains Mono','Cascadia Code','Fira Code','SFMono-Regular','Consolas','Liberation Mono',monospace" font-size="18" font-weight="800" fill="#c0caf5">Aethelgard</text><text x="167" y="443" font-family="'JetBrains Mono','Cascadia Code','Fira Code','SFMono-Regular','Consolas','Liberation Mono',monospace" font-size="11" fill="#9aa5ce">· via VAI Git</text><text x="50" y="488" font-family="'Segoe UI','Inter',system-ui,-apple-system,'Helvetica Neue',sans-serif" font-size="12.5" fill="#a9b1d6">TQ-1.58 HVRL — low-bit agentic reasoning, verifiable training.</text><text x="50" y="510" font-family="'JetBrains Mono','Cascadia Code','Fira Code','SFMono-Regular','Consolas','Liberation Mono',monospace" font-size="11" fill="#9aa5ce">#ml  #ternary  #research</text><text x="596" y="446" font-family="'JetBrains Mono','Cascadia Code','Fira Code','SFMono-Regular','Consolas','Liberation Mono',monospace" font-size="13" fill="#e0af68">★</text><text x="614" y="446" font-family="'JetBrains Mono','Cascadia Code','Fira Code','SFMono-Regular','Consolas','Liberation Mono',monospace" font-size="13.5" font-weight="700" fill="#c0caf5">18</text><text x="649" y="446" font-family="'JetBrains Mono','Cascadia Code','Fira Code','SFMono-Regular','Consolas','Liberation Mono',monospace" font-size="13" fill="#7aa2f7">⑂</text><text x="667" y="446" font-family="'JetBrains Mono','Cascadia Code','Fira Code','SFMono-Regular','Consolas','Liberation Mono',monospace" font-size="13.5" font-weight="700" fill="#c0caf5">1</text><text x="694" y="446" font-family="'JetBrains Mono','Cascadia Code','Fira Code','SFMono-Regular','Consolas','Liberation Mono',monospace" font-size="13" fill="#9ece6a">⧗</text><text x="712" y="446" font-family="'JetBrains Mono','Cascadia Code','Fira Code','SFMono-Regular','Consolas','Liberation Mono',monospace" font-size="13.5" font-weight="700" fill="#c0caf5">611 commits</text><text x="824" y="446" font-family="'JetBrains Mono','Cascadia Code','Fira Code','SFMono-Regular','Consolas','Liberation Mono',monospace" font-size="13" fill="#f7768e">◌</text><text x="842" y="446" font-family="'JetBrains Mono','Cascadia Code','Fira Code','SFMono-Regular','Consolas','Liberation Mono',monospace" font-size="13.5" font-weight="700" fill="#c0caf5">9 open</text><rect x="596.0" y="470.0" width="278.0" height="7" rx="2" fill="#7aa2f7"/><rect x="875.5" y="470.0" width="79.3" height="7" rx="2" fill="#dea584"/><rect x="956.3" y="470.0" width="18.2" height="7" rx="2" fill="#fedf5b"/><text x="976.0" y="465.0" text-anchor="end" font-family="'JetBrains Mono','Cascadia Code','Fira Code','SFMono-Regular','Consolas','Liberation Mono',monospace" font-size="10.5" fill="#9aa5ce">Python 74%</text><rect x="596.0" y="484.0" width="10.7" height="30.0" rx="1" fill="#bb9af7"/><rect x="608.7" y="512.5" width="10.7" height="1.5" rx="1" fill="#292e42"/><rect x="621.3" y="489.5" width="10.7" height="24.5" rx="1" fill="#bb9af7"/><rect x="634.0" y="489.5" width="10.7" height="24.5" rx="1" fill="#bb9af7"/><rect x="646.7" y="486.6" width="10.7" height="27.4" rx="1" fill="#bb9af7"/><rect x="659.3" y="489.5" width="10.7" height="24.5" rx="1" fill="#bb9af7"/><rect x="672.0" y="496.7" width="10.7" height="17.3" rx="1" fill="#bb9af7"/><rect x="684.7" y="492.8" width="10.7" height="21.2" rx="1" fill="#bb9af7"/><rect x="697.3" y="484.0" width="10.7" height="30.0" rx="1" fill="#bb9af7"/><rect x="710.0" y="512.5" width="10.7" height="1.5" rx="1" fill="#292e42"/><rect x="722.7" y="486.6" width="10.7" height="27.4" rx="1" fill="#bb9af7"/><rect x="735.3" y="492.8" width="10.7" height="21.2" rx="1" fill="#bb9af7"/><rect x="748.0" y="512.5" width="10.7" height="1.5" rx="1" fill="#292e42"/><rect x="760.7" y="492.8" width="10.7" height="21.2" rx="1" fill="#bb9af7"/><rect x="773.3" y="496.7" width="10.7" height="17.3" rx="1" fill="#bb9af7"/><rect x="786.0" y="492.8" width="10.7" height="21.2" rx="1" fill="#bb9af7"/><rect x="798.7" y="484.0" width="10.7" height="30.0" rx="1" fill="#bb9af7"/><rect x="811.3" y="489.5" width="10.7" height="24.5" rx="1" fill="#bb9af7"/><rect x="824.0" y="486.6" width="10.7" height="27.4" rx="1" fill="#bb9af7"/><rect x="836.7" y="512.5" width="10.7" height="1.5" rx="1" fill="#292e42"/><rect x="849.3" y="512.5" width="10.7" height="1.5" rx="1" fill="#292e42"/><rect x="862.0" y="501.8" width="10.7" height="12.2" rx="1" fill="#bb9af7"/><rect x="874.7" y="484.0" width="10.7" height="30.0" rx="1" fill="#bb9af7"/><rect x="887.3" y="501.8" width="10.7" height="12.2" rx="1" fill="#bb9af7"/><rect x="900.0" y="486.6" width="10.7" height="27.4" rx="1" fill="#bb9af7"/><rect x="912.7" y="489.5" width="10.7" height="24.5" rx="1" fill="#bb9af7"/><rect x="925.3" y="489.5" width="10.7" height="24.5" rx="1" fill="#bb9af7"/><rect x="938.0" y="501.8" width="10.7" height="12.2" rx="1" fill="#bb9af7"/><rect x="950.7" y="512.5" width="10.7" height="1.5" rx="1" fill="#292e42"/><rect x="963.3" y="484.0" width="10.7" height="30.0" rx="1" fill="#bb9af7"/>
  </g>
</svg>